<svg id="圖層_1" data-name="圖層 1" xmlns="http://www.w3.org/2000/svg" viewBox="0 0 61.09 23.39"><polygon points="30.88 16.95 26.94 13.84 23 16.95 19.05 13.84 15.11 16.95 11.17 13.84 7.63 16.88 7.46 16.68 11.17 13.5 15.11 16.61 19.05 13.51 23 16.61 26.94 13.51 30.88 16.61 34.83 13.51 38.77 16.61 42.71 13.51 46.65 16.61 50.6 13.51 54.62 16.68 54.46 16.88 50.6 13.84 46.65 16.95 42.71 13.84 38.77 16.95 34.83 13.84 30.88 16.95"/><polygon points="30.88 9.81 26.94 6.7 23 9.81 19.05 6.7 15.11 9.81 11.17 6.7 7.63 9.74 7.46 9.54 11.17 6.37 15.11 9.47 19.05 6.37 23 9.47 26.94 6.37 30.88 9.47 34.83 6.37 38.77 9.47 42.71 6.37 46.65 9.47 50.6 6.37 54.62 9.54 54.46 9.74 50.6 6.7 46.65 9.81 42.71 6.7 38.77 9.81 34.83 6.7 30.88 9.81"/></svg>