<svg id="圖層_1" data-name="圖層 1" xmlns="http://www.w3.org/2000/svg" viewBox="0 0 128.46 73.01"><defs><style>.cls-1{fill:#cacac8;}.cls-2{fill:#131215;}</style></defs><path d="M65.39,53.74a.49.49,0,0,1-.48-.48.48.48,0,0,1,.48-.47.47.47,0,0,1,.47.47A.48.48,0,0,1,65.39,53.74Z"/><path d="M65.39,57.31a.48.48,0,1,1,0-1,.48.48,0,0,1,0,1Z"/><path d="M65.39,60.88a.48.48,0,0,1-.48-.47.49.49,0,0,1,.48-.48.48.48,0,0,1,.47.48A.47.47,0,0,1,65.39,60.88Z"/><path d="M65.39,64.46a.49.49,0,0,1-.48-.48.48.48,0,0,1,.48-.47.47.47,0,0,1,.47.47A.48.48,0,0,1,65.39,64.46Z"/><path d="M65.39,68a.48.48,0,1,1,0-1,.48.48,0,0,1,0,1Z"/><path d="M65.39,71.6a.48.48,0,0,1-.48-.47.49.49,0,0,1,.48-.48.48.48,0,0,1,.47.48A.47.47,0,0,1,65.39,71.6Z"/><path d="M60,53.74a.49.49,0,0,1-.48-.48.48.48,0,0,1,.48-.47.47.47,0,0,1,.47.47A.48.48,0,0,1,60,53.74Z"/><path d="M60,57.31a.48.48,0,1,1,0-1,.48.48,0,0,1,0,1Z"/><path d="M60,60.88a.48.48,0,0,1-.48-.47.49.49,0,0,1,.48-.48.48.48,0,0,1,.47.48A.47.47,0,0,1,60,60.88Z"/><path d="M60,64.46a.49.49,0,0,1-.48-.48.48.48,0,0,1,.48-.47.47.47,0,0,1,.47.47A.48.48,0,0,1,60,64.46Z"/><path d="M60,68a.48.48,0,1,1,0-1,.48.48,0,0,1,0,1Z"/><path d="M60,71.6a.48.48,0,0,1-.48-.47.49.49,0,0,1,.48-.48.48.48,0,0,1,.47.48A.47.47,0,0,1,60,71.6Z"/><circle cx="54.69" cy="53.26" r="0.47"/><circle cx="54.69" cy="56.84" r="0.47"/><circle cx="54.69" cy="60.41" r="0.47"/><circle cx="54.69" cy="63.98" r="0.47"/><circle cx="54.69" cy="67.56" r="0.47"/><circle cx="54.69" cy="71.13" r="0.47"/><path d="M124.68,73.69H67.75l28.47-49.3Zm-56.37-.32h55.81L96.22,25Z"/><polygon points="110 65.92 105.61 73.53 114.39 73.53 110 65.92"/><rect x="84.75" y="12.01" width="0.32" height="64.89" transform="translate(-10.84 48.55) rotate(-30.08)"/><rect x="90.2" y="52.41" width="20.83" height="0.32" transform="translate(-7.71 86.54) rotate(-45)"/><rect x="92.64" y="56.34" width="20.71" height="0.32" transform="translate(-9.78 89.38) rotate(-45)"/><rect x="94.73" y="60.34" width="20.83" height="0.32" transform="translate(-11.98 92.07) rotate(-45)"/><path d="M67.65,17.69,54.32,31a9.42,9.42,0,0,1,0-13.32A9.43,9.43,0,0,0,67.65,17.69Z"/><path class="cls-1" d="M67.65,17.69a9.43,9.43,0,0,1-13.33,0A9.43,9.43,0,0,1,67.65,17.69Z"/><path class="cls-2" d="M61,20.56a9.51,9.51,0,0,1-6.75-2.79l-.09-.08.09-.09a9.56,9.56,0,0,1,13.5,0l.08.09-.08.08A9.54,9.54,0,0,1,61,20.56Zm-6.5-2.87a9.33,9.33,0,0,0,13,0A9.31,9.31,0,0,0,54.49,17.69Z"/><polygon class="cls-2" points="74.97 9.88 89.5 35.49 89.82 35.31 75.23 9.6 74.97 9.88"/><polygon class="cls-2" points="43.16 42.56 10.57 74.64 75.09 9.76 75.35 10.01 43.16 42.56"/></svg>