<?xml version="1.0" encoding="utf-8"?>
<!-- Generator: Adobe Illustrator 24.2.0, SVG Export Plug-In . SVG Version: 6.00 Build 0)  -->
<svg version="1.1" id="圖層_1" xmlns="http://www.w3.org/2000/svg" xmlns:xlink="http://www.w3.org/1999/xlink" x="0px" y="0px"
	 viewBox="0 0 99.97 93.95" style="enable-background:new 0 0 99.97 93.95;" xml:space="preserve">
<style type="text/css">
	.st0{fill:#D8D8D8;}
	.st1{fill:#B7B7B7;}
	.st2{fill:#9B999A;}
	.st3{fill:none;stroke:#000000;stroke-width:0.5;stroke-miterlimit:10;}
	.st4{fill:#FFFFFF;stroke:#000000;stroke-width:1.3796;stroke-miterlimit:10;}
	.st5{fill:none;stroke:#000000;stroke-miterlimit:10;}
	.st6{fill:none;stroke:#000000;stroke-width:0.9126;stroke-miterlimit:10;}
	.st7{fill:#242951;stroke:#000000;stroke-width:0.9126;stroke-miterlimit:10;}
	.st8{fill:none;stroke:#000000;stroke-width:0.8164;stroke-miterlimit:10;}
	.st9{fill:none;stroke:#FFFFFF;stroke-miterlimit:10;}
	.st10{fill:#FFFFFF;stroke:#000000;stroke-width:0.7041;stroke-miterlimit:10;}
	.st11{fill:#FFFFFF;stroke:#000000;stroke-width:0.5728;stroke-miterlimit:10;}
	.st12{fill:#608091;stroke:#000000;stroke-width:0.9126;stroke-miterlimit:10;}
	.st13{fill:#F19B9B;stroke:#000000;stroke-width:0.9126;stroke-miterlimit:10;}
	.st14{fill:#FBE1E1;stroke:#000000;stroke-width:0.9126;stroke-miterlimit:10;}
	.st15{fill-rule:evenodd;clip-rule:evenodd;fill:#87CAC0;}
	.st16{fill-rule:evenodd;clip-rule:evenodd;fill:#A2D4CE;}
	.st17{fill-rule:evenodd;clip-rule:evenodd;fill:#053B47;}
	.st18{fill:#FFFFFF;stroke:#000000;stroke-width:0.8441;stroke-miterlimit:10;}
	.st19{fill:#FBE1E1;}
	.st20{fill:#FFFFFF;stroke:#000000;stroke-width:0.8178;stroke-miterlimit:10;}
	.st21{fill:#FFFFFF;stroke:#000000;stroke-width:0.8393;stroke-miterlimit:10;}
	.st22{fill:#30396C;}
	.st23{fill:#FFFFFF;stroke:#000000;stroke-miterlimit:10;}
	.st24{fill:none;stroke:#000000;stroke-linecap:round;stroke-linejoin:round;stroke-miterlimit:10;}
	.st25{fill:none;stroke:#000000;stroke-width:2;stroke-linecap:round;stroke-linejoin:round;stroke-miterlimit:10;}
	.st26{fill:none;stroke:#040000;stroke-miterlimit:10;}
	.st27{fill:#393A3A;}
</style>
<g>
	<path class="st20" d="M74.66,77.61H25.92c-3.98,0-7.2-3.22-7.2-7.2V25.53c0-3.98,3.22-7.2,7.2-7.2h48.74c3.98,0,7.2,3.22,7.2,7.2
		V70.4C81.86,74.38,78.64,77.61,74.66,77.61z"/>
	<line class="st18" x1="30.36" y1="32.93" x2="64.55" y2="32.93"/>
	<line class="st18" x1="30.36" y1="42.63" x2="59.81" y2="42.63"/>
	<line class="st18" x1="30.36" y1="52.52" x2="54.42" y2="52.52"/>
	<line class="st18" x1="30.36" y1="61.77" x2="55.42" y2="61.77"/>
	<path class="st21" d="M55.73,66.06c0,0-2.01-12.82-1.14-14.38l19.95-35.84c0.87-1.56,3.1-1.97,4.99-0.92l7.12,3.96
		c1.89,1.05,2.72,3.17,1.85,4.72L68.55,59.45C67.68,61.01,55.73,66.06,55.73,66.06z"/>
	<line class="st18" x1="70.36" y1="22.37" x2="84.78" y2="30.29"/>
	<path class="st22" d="M55.63,52.51l15.73-28.27l13.93,7.84l-15.7,28.2C68.73,61.84,54.77,54.07,55.63,52.51z"/>
</g>
</svg>
