<svg id="圖層_1" data-name="圖層 1" xmlns="http://www.w3.org/2000/svg" viewBox="0 0 99.97 93.95"><defs><style>.cls-1,.cls-2,.cls-3{fill:#fff;}.cls-1,.cls-3,.cls-5{stroke:#231815;stroke-miterlimit:10;}.cls-1,.cls-5{stroke-width:2px;}.cls-3{stroke-width:0.84px;}.cls-4{fill:#b7b6b6;}.cls-5{fill:none;}</style></defs><rect class="cls-1" x="18.72" y="18.33" width="63.14" height="59.27" rx="7.2"/><rect class="cls-2" x="72.89" y="17.37" width="14.56" height="9.95" transform="translate(21.91 -37.09) rotate(30)"/><line class="cls-3" x1="30.36" y1="32.93" x2="64.55" y2="32.93"/><line class="cls-3" x1="30.36" y1="42.63" x2="59.81" y2="42.63"/><line class="cls-3" x1="30.36" y1="52.52" x2="54.42" y2="52.52"/><line class="cls-3" x1="30.36" y1="61.77" x2="55.42" y2="61.77"/><path class="cls-4" d="M55.63,52.51,71.37,24.24l14.78,8.32-15.7,28.2C69.58,62.32,54.77,54.07,55.63,52.51Z"/><path class="cls-5" d="M55.73,66.06s-2-12.82-1.15-14.38l20-35.84c.87-1.56,3.1-2,5-.92l7.12,4c1.89,1.05,2.72,3.17,1.85,4.72L68.55,59.45C67.68,61,55.73,66.06,55.73,66.06Z"/><line class="cls-1" x1="70.36" y1="22.37" x2="84.78" y2="30.29"/></svg>